<?xml version="1.0" encoding="utf-8"?>
<!-- Generator: Adobe Illustrator 22.1.0, SVG Export Plug-In . SVG Version: 6.00 Build 0)  -->
<svg version="1.1" id="Layer_1" xmlns="http://www.w3.org/2000/svg" xmlns:xlink="http://www.w3.org/1999/xlink" x="0px" y="0px"
	 viewBox="0 0 12 12" style="enable-background:new 0 0 12 12;" xml:space="preserve">
<style type="text/css">
	.st0{fill:#AAAAAA;}
</style>
<g transform="translate(0, 0)">
	<path class="st0" d="M9.8,3.6l1.1-1.1L9.5,1L8.4,2.2C8,1.9,7.5,1.7,7,1.6V0H5v1.6C4.5,1.7,4,1.9,3.6,2.2L2.5,1L1,2.5l1.2,1.1
		C1.9,4,1.7,4.5,1.6,5H0v2h1.6c0.1,0.5,0.3,1,0.6,1.4L1,9.5l1.4,1.4l1.1-1.1c0.5,0.3,1,0.5,1.5,0.6V12h2v-1.6c0.5-0.1,1-0.3,1.4-0.6
		l1.1,1.1l1.4-1.4L9.8,8.4C10.1,8,10.3,7.5,10.4,7H12V5h-1.6C10.3,4.5,10.1,4,9.8,3.6z M6,8C4.9,8,4,7.1,4,6s0.9-2,2-2s2,0.9,2,2
		S7.1,8,6,8z"/>
</g>
</svg>
