<?xml version="1.0" encoding="utf-8"?>
<!-- Generator: Adobe Illustrator 22.1.0, SVG Export Plug-In . SVG Version: 6.00 Build 0)  -->
<svg version="1.1" id="Layer_1" xmlns="http://www.w3.org/2000/svg" xmlns:xlink="http://www.w3.org/1999/xlink" x="0px" y="0px"
	 viewBox="0 0 16 16" style="enable-background:new 0 0 16 16;" xml:space="preserve">
<style type="text/css">
	.st0{fill:#444444;}
</style>
<path class="st0" d="M0,8.2v0.4c0,0.1,0.1,0.1,0.1,0.2l5,5c0.2,0.2,0.5,0.2,0.7,0c0.2-0.2,0.2-0.5,0-0.7L1.7,8.9h13.8
	c0.3,0,0.5-0.2,0.5-0.5s-0.2-0.5-0.5-0.5H1.7l4.1-4.1C6,3.6,6,3.3,5.8,3.1C5.7,3,5.6,3,5.4,3S5.1,3,5,3.1l-5,5
	C0.1,8.1,0.1,8.1,0,8.2z"/>
</svg>
